<?xml version="1.0" encoding="UTF-8" standalone="no"?>
<!-- Created with Inkscape (http://www.inkscape.org/) -->

<svg
   width="120"
   height="120"
   viewBox="15 15 90 90"
   version="1.1"
   id="svg5"
   xmlns="http://www.w3.org/2000/svg"
   xmlns:svg="http://www.w3.org/2000/svg">
  <defs
     id="defs2" />
  <g
     id="layer1">
    <path
       id="text2014"
       style="font-style:normal;font-weight:normal;font-size:133.333px;line-height:1.25;font-family:sans-serif;letter-spacing:0px;word-spacing:0px;fill:#ffffff;fill-opacity:1;stroke:none"
       d="m 36.466799,35.800781 c -4.088879,0 -7.689678,1.287463 -10.800781,3.865235 -3.022215,2.488882 -4.533204,5.556736 -4.533204,9.201172 0,4.977765 2.622757,8.666412 7.867188,11.066406 -6.222206,2.488882 -9.333984,6.17753 -9.333984,11.066406 0,3.822212 1.556865,6.977914 4.667968,9.466797 3.199992,2.488882 7.110212,3.732422 11.732422,3.732422 3.022215,0 5.82262,-0.620793 8.400391,-1.865235 2.577771,-1.244441 4.621705,-2.933078 6.132812,-5.066406 1.599996,-2.222216 2.400391,-4.757125 2.400391,-7.601562 0,-3.022215 -0.978043,-5.555171 -2.933594,-7.59961 -1.866662,-2.044439 -4.178045,-3.599351 -6.933594,-4.666015 3.022215,-1.511108 5.15595,-2.934249 6.400391,-4.267579 1.244441,-1.333329 1.867188,-3.155691 1.867188,-5.466796 0,-3.733324 -1.423141,-6.621577 -4.267579,-8.666016 -2.844437,-2.133328 -6.399359,-3.199219 -10.666015,-3.199219 z m 0,3.732422 c 2.311105,0 4.311115,0.710594 6,2.132813 1.777773,1.33333 2.666015,3.33334 2.666015,6 0,1.95555 -0.800394,3.777912 -2.40039,5.466796 -1.599996,1.599996 -3.154909,2.400391 -4.666016,2.400391 -2.755548,0 -5.154779,-0.888242 -7.199218,-2.666015 -2.04444,-1.866662 -3.066407,-3.956473 -3.066407,-6.267579 0,-2.044439 0.798442,-3.733076 2.398438,-5.066406 1.688884,-1.33333 3.778695,-2 6.267578,-2 z m 59.599609,6.267578 c -0.62222,0 -1.021441,0.221573 -1.199218,0.666016 -0.08889,0.355555 -0.17869,0.666928 -0.267579,0.933594 0,0.177777 -0.04392,0.355425 -0.132812,0.533203 -0.533332,-1.066664 -1.601176,-1.59961 -3.201172,-1.59961 -2.399994,0 -4.887073,0.844319 -7.464844,2.533204 -2.488882,1.688884 -4.578693,3.866543 -6.267578,6.533203 -1.688884,2.577771 -2.533203,5.200527 -2.533203,7.867187 0,1.688885 0.399221,3.066149 1.199219,4.132813 0.888886,0.977775 2.178303,1.466797 3.867187,1.466797 1.688885,0 3.423399,-0.756471 5.201172,-2.267579 1.777773,-1.599996 3.510334,-3.510205 5.199219,-5.732421 l -1.333985,3.732421 c -0.355554,0.799998 -0.533203,1.510592 -0.533203,2.132813 0,0.799998 0.26745,1.37882 0.800782,1.734375 0.533332,0.266666 1.022353,0.400391 1.466797,0.400391 0.888886,0 1.910853,-0.445098 3.066406,-1.333985 1.244441,-0.888886 2.444057,-1.954777 3.599609,-3.199219 1.155553,-1.244441 2.089672,-2.312285 2.800775,-3.201172 l -1.601556,-1.332031 c -0.711109,0.888887 -1.599352,1.864977 -2.666016,2.931641 -0.977775,1.066664 -1.77817,1.823135 -2.40039,2.267578 l 4.933593,-14.400391 c 0.71111,-1.95555 1.066407,-3.244966 1.066407,-3.867187 0,-0.622221 -0.355297,-0.931641 -1.066407,-0.931641 z M 73.26758,46.066406 c -0.977775,0 -1.644445,0.355297 -2,1.066406 -0.355555,0.71111 -0.535156,1.333856 -0.535156,1.867188 0,1.066664 0.534898,2.400004 1.601562,4 0,1.422219 -0.578822,3.200656 -1.734375,5.333984 -1.066664,2.04444 -2.400004,3.866801 -4,5.466797 -1.511107,1.511107 -3.022096,2.265625 -4.533203,2.265625 -0.977775,0 -1.466797,-0.576869 -1.466797,-1.732422 0,-0.799998 0.177649,-1.600392 0.533203,-2.40039 l 4,-10.132813 c 0.266666,-0.62222 0.444315,-1.157119 0.533204,-1.601562 0.08889,-0.444444 0.134765,-0.843664 0.134765,-1.199219 0,-0.711109 -0.223525,-1.333856 -0.667969,-1.867188 -0.444443,-0.533331 -1.065236,-0.798828 -1.865234,-0.798828 -1.422218,0 -2.93516,0.620793 -4.535156,1.865235 C 57.221317,49.354771 55.800129,50.955561 54.466799,53 l 1.599609,1.333984 c 0.71111,-0.977775 1.511504,-1.911894 2.400391,-2.800781 0.888886,-0.888886 1.511633,-1.333984 1.867187,-1.333984 0.266666,0 0.398438,0.0898 0.398438,0.267578 0,0.08889 -0.177649,0.57791 -0.533203,1.466797 l -3.332031,8 c -0.266666,0.62222 -0.534116,1.332814 -0.800782,2.132812 -0.266666,0.799998 -0.40039,1.556469 -0.40039,2.267578 0,3.022215 1.688637,4.533204 5.066406,4.533204 2.222216,0 4.489676,-0.978044 6.800781,-2.933594 2.399994,-2.044439 4.400004,-4.533471 6,-7.466797 1.688885,-2.933326 2.533203,-5.733731 2.533203,-8.400391 0,-1.422218 -0.311373,-2.444185 -0.933594,-3.066406 -0.533331,-0.622221 -1.154125,-0.933594 -1.865234,-0.933594 z m 17.865234,2.800782 c 0.799998,-10e-7 1.28902,0.177648 1.466797,0.533203 0.266666,0.355554 0.400391,0.710851 0.400391,1.066406 0,0.888886 -0.399221,2.178303 -1.199219,3.867187 -0.711109,1.599996 -1.689152,3.24471 -2.933593,4.933594 -1.155553,1.688885 -2.355169,3.110073 -3.59961,4.265625 -1.244441,1.155553 -2.356209,1.734375 -3.333984,1.734375 -0.622221,0 -1.067319,-0.133725 -1.333985,-0.40039 -0.177777,-0.533332 -0.265625,-1.200003 -0.265625,-2 0,-1.777774 0.620793,-3.73386 1.865235,-5.867188 1.244441,-2.222217 2.711506,-4.132426 4.40039,-5.732422 1.688885,-1.599996 3.199874,-2.40039 4.533203,-2.40039 z M 34.466799,61.533203 c 1.688884,0 3.421445,0.445098 5.199219,1.333985 1.777773,0.888886 3.288761,2.088502 4.533203,3.599609 1.244441,1.511107 1.867187,3.199744 1.867187,5.066406 0,2.755549 -0.978043,4.933207 -2.933594,6.533203 -1.866661,1.599996 -4.221969,2.400391 -7.066406,2.400391 -2.844437,0 -5.15582,-0.710594 -6.933594,-2.132813 -1.777773,-1.511107 -2.666015,-3.688766 -2.666015,-6.533203 0,-1.777773 0.489021,-3.422486 1.466797,-4.933593 C 28.911371,65.267192 30.023139,63.977775 31.26758,63 c 1.33333,-0.977775 2.399221,-1.466797 3.199219,-1.466797 z" />
  </g>
</svg>
