<?xml version="1.0" encoding="UTF-8" standalone="no"?>
<!-- Created with Inkscape (http://www.inkscape.org/) -->

<svg
   width="120"
   height="120"
   viewBox="3.96875 3.96875 23.8125 23.8125"
   version="1.1"
   id="svg11183"
   xmlns="http://www.w3.org/2000/svg"
   xmlns:svg="http://www.w3.org/2000/svg">
  <defs
     id="defs11180" />
  <g
     id="layer1">
    <path
       id="text2014"
       style="font-style:normal;font-weight:normal;font-size:35.2777px;line-height:1.25;font-family:sans-serif;letter-spacing:0px;word-spacing:0px;fill:#ffffff;fill-opacity:1;stroke:none;stroke-width:0.264583"
       d="m 23.583056,9.3839236 -0.49351,0.2821532 c -0.258703,0.1646293 -0.576617,0.2823946 -0.952913,0.3529502 l -0.705383,0.105936 v 0.564307 h 0.317293 c 0.141111,-0.02352 0.294258,-0.04728 0.458887,-0.0708 l -1.446423,4.621423 c -0.282222,0.870184 -0.42323,1.470115 -0.42323,1.799374 0,0.329258 0.152629,0.622897 0.458369,0.8816 0.30574,0.258703 0.799528,0.38809 1.481564,0.38809 0.705554,0 1.376248,-0.211254 2.011246,-0.634587 0.658518,-0.446851 1.187687,-0.99978 1.5875,-1.658297 0.423333,-0.682035 0.634587,-1.387594 0.634587,-2.116666 0,-0.399814 -0.105627,-0.764215 -0.317293,-1.093473 -0.211666,-0.352778 -0.576067,-0.529167 -1.093473,-0.529167 -0.423333,0 -0.893878,0.188011 -1.411284,0.564306 -0.517406,0.352777 -0.940948,0.787941 -1.270207,1.305347 L 23.79493,9.7720136 Z M 9.6836465,9.56014 c -1.0818492,3e-7 -2.0340436,0.341158 -2.8571899,1.023193 -0.7996277,0.658517 -1.1994099,1.469703 -1.1994099,2.43396 0,1.317034 0.6934205,2.293505 2.0810098,2.928503 -1.6462925,0.658517 -2.4690999,1.634471 -2.4690999,2.927987 0,1.011294 0.4114038,1.84624 1.2345501,2.504757 0.8466648,0.658517 1.881243,0.987536 3.1042033,0.987536 0.799628,0 1.540568,-0.164768 2.222603,-0.494026 0.682036,-0.329259 1.222826,-0.776044 1.62264,-1.340487 0.423332,-0.587962 0.635104,-1.258139 0.635103,-2.01073 10e-7,-0.799628 -0.258773,-1.469805 -0.776179,-2.01073 -0.493888,-0.540924 -1.104925,-0.952845 -1.833997,-1.235067 0.799628,-0.399814 1.363661,-0.775836 1.69292,-1.128613 0.329258,-0.352777 0.494027,-0.834943 0.494027,-1.446423 0,-0.987776 -0.376023,-1.751959 -1.128614,-2.292884 C 11.753622,9.8426737 10.812533,9.56014 9.6836465,9.56014 Z m 0,0.988053 c 0.6114805,0 1.1406495,0.188011 1.5874995,0.564307 0.47037,0.352777 0.705901,0.881946 0.705901,1.5875 0,0.517406 -0.211771,0.999572 -0.635104,1.446423 -0.423332,0.423332 -0.835253,0.635103 -1.235066,0.635104 -0.729073,-1e-6 -1.363869,-0.235531 -1.9047937,-0.7059 -0.5409247,-0.493888 -0.8113199,-1.0463 -0.8113199,-1.65778 0,-0.540925 0.2117709,-0.98771 0.6351032,-1.340487 0.4468508,-0.352777 0.9992629,-0.529167 1.6577799,-0.529167 z M 19.42052,12.27677 c -0.258703,0 -0.435093,0.094 -0.529167,0.282153 -0.09407,0.188148 -0.141076,0.352916 -0.141076,0.494027 0,0.282222 0.141008,0.635001 0.42323,1.058333 0,0.376296 -0.153147,0.846324 -0.458887,1.410767 -0.282222,0.540924 -0.635001,1.023091 -1.058334,1.446423 -0.399813,0.399814 -0.799596,0.599964 -1.199409,0.599964 -0.258704,0 -0.38809,-0.153147 -0.38809,-0.458887 0,-0.211667 0.04752,-0.422921 0.141593,-0.634587 l 1.058333,-2.68149 c 0.07056,-0.164629 0.117559,-0.305637 0.141077,-0.42323 0.02352,-0.117592 0.03514,-0.223219 0.03514,-0.317293 0,-0.188148 -0.05862,-0.352916 -0.176217,-0.494027 -0.117592,-0.141111 -0.28236,-0.211873 -0.494026,-0.211873 -0.376296,0 -0.776078,0.164768 -1.19941,0.494026 -0.399814,0.305741 -0.776353,0.729283 -1.129131,1.270207 l 0.423231,0.352434 c 0.188147,-0.258704 0.399918,-0.505339 0.635103,-0.740524 0.235184,-0.235184 0.399953,-0.35295 0.494027,-0.35295 0.07055,0 0.105936,0.02376 0.105936,0.0708 0,0.02352 -0.047,0.152905 -0.141077,0.38809 l -0.882116,2.116666 c -0.07056,0.16463 -0.141318,0.352641 -0.211873,0.564307 -0.07056,0.211666 -0.10542,0.411299 -0.10542,0.599447 0,0.799628 0.446784,1.19941 1.340486,1.19941 0.587962,0 1.187377,-0.258257 1.798857,-0.775664 0.634998,-0.540924 1.164167,-1.19948 1.5875,-1.97559 0.446851,-0.776109 0.670243,-1.517049 0.670243,-2.222603 0,-0.376295 -0.08187,-0.646691 -0.246497,-0.81132 -0.14111,-0.164629 -0.305878,-0.247013 -0.494026,-0.247013 z m 5.22087,0.8816 c 0.30574,0 0.458886,0.247152 0.458887,0.74104 -10e-7,0.587961 -0.141526,1.164133 -0.423747,1.728576 -0.282222,0.564444 -0.635001,1.034988 -1.058334,1.411284 -0.423332,0.352777 -0.870117,0.529167 -1.340486,0.529167 -0.376296,0 -0.564307,-0.164769 -0.564307,-0.494027 0,-0.235185 0.08238,-0.552583 0.247013,-0.952397 0.16463,-0.399814 0.376401,-0.811217 0.635104,-1.23455 0.282221,-0.423332 0.57586,-0.776112 0.8816,-1.058333 0.470369,-0.446851 0.85853,-0.67076 1.16427,-0.67076 z M 9.1544798,16.369027 c 0.4468509,0 0.9057742,0.117248 1.3761432,0.352433 0.47037,0.235184 0.870152,0.553099 1.19941,0.952913 0.329259,0.399814 0.49351,0.846599 0.49351,1.340487 0,0.729072 -0.258257,1.305244 -0.775663,1.728577 -0.493888,0.423332 -1.117579,0.635103 -1.87017,0.635103 -0.7525909,0 -1.3636273,-0.188528 -1.8339967,-0.564824 C 7.273344,20.413902 7.0378132,19.837731 7.0378132,19.08514 c 0,-0.470369 0.1293871,-0.905533 0.38809,-1.305347 0.2587033,-0.423332 0.5528583,-0.763973 0.8821169,-1.022677 0.3527769,-0.258703 0.6347936,-0.38809 0.8464597,-0.388089 z" />
  </g>
</svg>
